<mxfile host="app.diagrams.net" modified="2023-05-29T03:33:03.939Z" agent="Mozilla/5.0 (Windows NT 10.0; Win64; x64) AppleWebKit/537.36 (KHTML, like Gecko) Chrome/113.0.0.0 Safari/537.36" version="21.3.5" etag="15KWlsdUsv7pW59Wgj8e" type="github">
  <diagram name="第 1 页" id="7zhmTF2j0vFbi-3mUU77">
    <mxGraphModel>
      <root>
        <mxCell id="0" />
        <mxCell id="1" parent="0" />
      </root>
    </mxGraphModel>
  </diagram>
</mxfile>
